<svg xmlns="http://www.w3.org/2000/svg" xmlns:xlink="http://www.w3.org/1999/xlink" width="414" zoomAndPan="magnify" viewBox="0 0 310.5 671.999985" height="896" preserveAspectRatio="xMidYMid meet" version="1.0"><defs><g/><clipPath id="c0b8637b11"><path d="M 101.101562 258 L 208.925781 258 L 208.925781 348.769531 L 101.101562 348.769531 Z M 101.101562 258 " clip-rule="nonzero"/></clipPath><clipPath id="d743557d7d"><path d="M 206.785156 257.859375 L 222.507812 257.859375 L 222.507812 273.585938 L 206.785156 273.585938 Z M 206.785156 257.859375 " clip-rule="nonzero"/></clipPath><clipPath id="f4bd4fa46b"><path d="M 222.265625 271.695312 L 229.753906 271.695312 L 229.753906 279 L 222.265625 279 Z M 222.265625 271.695312 " clip-rule="nonzero"/></clipPath><clipPath id="224f3137a3"><path d="M 217.292969 241.492188 L 249.492188 241.492188 L 249.492188 273.691406 L 217.292969 273.691406 Z M 217.292969 241.492188 " clip-rule="nonzero"/></clipPath></defs><g clip-path="url(#c0b8637b11)"><path fill="#ffffff" d="M 154.976562 335.800781 C 161.183594 335.832031 168.417969 336.339844 175.269531 337.71875 C 181.277344 339.132812 181.976562 340.757812 175.804688 342.214844 C 169.25 343.550781 162.273438 344.105469 154.976562 344.320312 C 147.671875 344.101562 140.695312 343.550781 134.140625 342.214844 C 127.957031 340.757812 128.667969 339.132812 134.675781 337.71875 C 141.527344 336.339844 148.769531 335.832031 154.976562 335.800781 Z M 112.292969 275.492188 C 110.410156 286.429688 112.777344 299.609375 122.390625 303.492188 C 117.128906 305.460938 116.695312 307.789062 115.402344 309.613281 C 104.082031 300.632812 106.300781 284.015625 112.292969 275.492188 Z M 139.667969 263.050781 C 134.503906 268.199219 132.519531 267.152344 124.855469 267.152344 C 111.710938 267.152344 101.101562 277.792969 101.101562 290.960938 C 101.105469 299.882812 106.089844 310.574219 113.492188 314.695312 C 117.742188 317.058594 118.683594 315.863281 119.609375 312.703125 C 122.261719 303.648438 150.8125 303.789062 165.589844 306.121094 C 174.179688 307.589844 179.371094 309.226562 180.664062 314.046875 C 164.261719 306.664062 143.625 307.277344 126.808594 312.746094 C 123.738281 313.761719 121.9375 315.492188 122.855469 318.558594 C 124.332031 323.449219 124.585938 327.347656 123.472656 333.511719 C 122.648438 338.042969 122.621094 341.460938 127.226562 343.617188 C 129.253906 344.570312 131.558594 345.320312 134.015625 345.96875 C 140.503906 347.71875 148.089844 348.628906 154.972656 348.628906 C 161.859375 348.628906 169.453125 347.71875 175.941406 345.96875 C 178.722656 345.230469 181.230469 344.203125 183.5 343.253906 C 187.21875 341.707031 187.554688 339.132812 186.773438 335.777344 C 185.933594 332.136719 185.859375 327.382812 187.078125 322.601562 C 187.949219 319.195312 188.917969 317.710938 193.445312 316.070312 C 202.578125 312.753906 208.84375 301.035156 208.851562 290.953125 C 208.855469 276.382812 194.03125 263.609375 178.863281 268.1875 C 179.804688 272.464844 181.191406 278.523438 176.078125 283.636719 C 177.351562 278.386719 176.585938 273.121094 173.863281 268.054688 C 171.140625 262.992188 166.730469 259.3125 156.949219 258.492188 C 147.167969 257.664062 142.933594 259.800781 139.667969 263.050781 Z M 139.667969 263.050781 " fill-opacity="1" fill-rule="evenodd"/></g><g clip-path="url(#d743557d7d)"><path fill="#feeb3a" d="M 222.261719 265.597656 C 216.457031 266.667969 215.589844 267.535156 214.523438 273.335938 C 213.453125 267.535156 212.589844 266.667969 206.785156 265.597656 C 212.589844 264.53125 213.453125 263.664062 214.523438 257.859375 C 215.589844 263.664062 216.457031 264.53125 222.261719 265.597656 Z M 222.261719 265.597656 " fill-opacity="1" fill-rule="nonzero"/></g><g clip-path="url(#f4bd4fa46b)"><path fill="#feeb3a" d="M 229.472656 275.300781 C 226.769531 275.796875 226.367188 276.199219 225.867188 278.902344 C 225.371094 276.199219 224.96875 275.796875 222.265625 275.300781 C 224.96875 274.804688 225.371094 274.398438 225.867188 271.695312 C 226.367188 274.398438 226.769531 274.804688 229.472656 275.300781 Z M 229.472656 275.300781 " fill-opacity="1" fill-rule="nonzero"/></g><g clip-path="url(#224f3137a3)"><path fill="#feeb3a" d="M 249.128906 257.410156 C 237.191406 259.609375 235.410156 261.390625 233.210938 273.328125 C 231.011719 261.390625 229.230469 259.609375 217.292969 257.410156 C 229.230469 255.210938 231.011719 253.429688 233.210938 241.492188 C 235.410156 253.429688 237.191406 255.210938 249.128906 257.410156 Z M 249.128906 257.410156 " fill-opacity="1" fill-rule="nonzero"/></g><g fill="#ffffff" fill-opacity="1"><g transform="translate(76.787222, 422.946245)"><g><path d="M 12.40625 -21.078125 L 20.0625 -0.734375 C 20.082031 -0.691406 20.097656 -0.644531 20.109375 -0.59375 C 20.117188 -0.550781 20.125 -0.507812 20.125 -0.46875 C 20.125 -0.332031 20.070312 -0.21875 19.96875 -0.125 C 19.863281 -0.0390625 19.722656 0 19.546875 0 L 15.765625 0 C 15.597656 0 15.457031 -0.0351562 15.34375 -0.109375 C 15.226562 -0.179688 15.140625 -0.3125 15.078125 -0.5 L 13.828125 -4.34375 L 12.65625 -4.34375 C 11.375 -4.34375 10.316406 -4.585938 9.484375 -5.078125 C 8.648438 -5.578125 8.054688 -6.226562 7.703125 -7.03125 C 7.191406 -5.382812 6.550781 -4.035156 5.78125 -2.984375 C 5.019531 -1.929688 4.132812 -1.117188 3.125 -0.546875 C 2.125 0.0234375 1.019531 0.421875 -0.1875 0.640625 L 8 -21.078125 C 8.132812 -21.410156 8.378906 -21.578125 8.734375 -21.578125 L 11.671875 -21.578125 C 12.023438 -21.578125 12.269531 -21.410156 12.40625 -21.078125 Z M 10.21875 -15.296875 L 8.078125 -8.25 L 12.53125 -8.25 Z M 10.21875 -15.296875 "/></g></g></g><g fill="#ffffff" fill-opacity="1"><g transform="translate(97.033973, 422.946245)"><g><path d="M 11.140625 -17.265625 L 8.6875 -17.265625 L 8.6875 -4.3125 L 11.140625 -4.3125 C 11.566406 -4.3125 11.78125 -4.101562 11.78125 -3.6875 L 11.78125 -0.640625 C 11.78125 -0.210938 11.566406 0 11.140625 0 L 1.484375 0 C 1.066406 0 0.859375 -0.210938 0.859375 -0.640625 L 0.859375 -3.6875 C 0.859375 -4.101562 1.066406 -4.3125 1.484375 -4.3125 L 3.9375 -4.3125 L 3.9375 -10.953125 C 3.9375 -12.609375 4.253906 -13.972656 4.890625 -15.046875 C 5.535156 -16.117188 6.375 -16.859375 7.40625 -17.265625 L 1.484375 -17.265625 C 1.066406 -17.265625 0.859375 -17.472656 0.859375 -17.890625 L 0.859375 -20.9375 C 0.859375 -21.363281 1.066406 -21.578125 1.484375 -21.578125 L 11.140625 -21.578125 C 11.566406 -21.578125 11.78125 -21.363281 11.78125 -20.9375 L 11.78125 -17.890625 C 11.78125 -17.472656 11.566406 -17.265625 11.140625 -17.265625 Z M 11.140625 -17.265625 "/></g></g></g><g fill="#ffffff" fill-opacity="1"><g transform="translate(109.664393, 422.946245)"><g><path d="M 10.859375 -14.1875 C 11.035156 -14.144531 11.160156 -14.054688 11.234375 -13.921875 C 11.316406 -13.785156 11.359375 -13.628906 11.359375 -13.453125 L 11.359375 -10.3125 C 11.359375 -10.09375 11.289062 -9.9375 11.15625 -9.84375 C 11.03125 -9.75 10.851562 -9.738281 10.625 -9.8125 C 10.09375 -9.9375 9.609375 -10 9.171875 -10 C 7.429688 -10 6.46875 -9.015625 6.28125 -7.046875 L 6.28125 -0.640625 C 6.28125 -0.210938 6.070312 0 5.65625 0 L 2.15625 0 C 1.726562 0 1.515625 -0.210938 1.515625 -0.640625 L 1.515625 -14.3125 C 3.429688 -13.90625 4.773438 -12.972656 5.546875 -11.515625 C 6.046875 -12.535156 6.671875 -13.253906 7.421875 -13.671875 C 8.171875 -14.097656 8.96875 -14.3125 9.8125 -14.3125 C 9.988281 -14.3125 10.164062 -14.296875 10.34375 -14.265625 C 10.519531 -14.242188 10.691406 -14.21875 10.859375 -14.1875 Z M 10.859375 -14.1875 "/></g></g></g><g fill="#ffffff" fill-opacity="1"><g transform="translate(121.564913, 422.946245)"><g><path d="M 8.890625 0.5 C 7.640625 0.5 6.519531 0.316406 5.53125 -0.046875 C 4.539062 -0.410156 3.695312 -0.925781 3 -1.59375 C 2.3125 -2.269531 1.785156 -3.0625 1.421875 -3.96875 C 1.066406 -4.882812 0.890625 -5.890625 0.890625 -6.984375 C 0.890625 -8.078125 1.070312 -9.082031 1.4375 -10 C 1.800781 -10.914062 2.328125 -11.707031 3.015625 -12.375 C 3.710938 -13.050781 4.550781 -13.570312 5.53125 -13.9375 C 6.519531 -14.3125 7.640625 -14.5 8.890625 -14.5 C 10.117188 -14.5 11.222656 -14.3125 12.203125 -13.9375 C 13.191406 -13.570312 14.03125 -13.050781 14.71875 -12.375 C 15.40625 -11.707031 15.929688 -10.914062 16.296875 -10 C 16.660156 -9.082031 16.84375 -8.078125 16.84375 -6.984375 C 16.84375 -5.515625 16.523438 -4.210938 15.890625 -3.078125 C 15.265625 -1.953125 14.351562 -1.070312 13.15625 -0.4375 C 11.96875 0.1875 10.546875 0.5 8.890625 0.5 Z M 8.890625 -3.203125 C 9.585938 -3.203125 10.175781 -3.363281 10.65625 -3.6875 C 11.132812 -4.019531 11.5 -4.46875 11.75 -5.03125 C 12 -5.601562 12.125 -6.242188 12.125 -6.953125 C 12.125 -7.671875 12 -8.320312 11.75 -8.90625 C 11.5 -9.488281 11.132812 -9.945312 10.65625 -10.28125 C 10.175781 -10.625 9.585938 -10.796875 8.890625 -10.796875 C 8.191406 -10.796875 7.597656 -10.625 7.109375 -10.28125 C 6.617188 -9.9375 6.242188 -9.472656 5.984375 -8.890625 C 5.734375 -8.304688 5.609375 -7.660156 5.609375 -6.953125 C 5.609375 -6.253906 5.734375 -5.617188 5.984375 -5.046875 C 6.234375 -4.484375 6.601562 -4.035156 7.09375 -3.703125 C 7.582031 -3.367188 8.179688 -3.203125 8.890625 -3.203125 Z M 8.890625 -3.203125 "/></g></g></g><g fill="#ffffff" fill-opacity="1"><g transform="translate(139.336355, 422.946245)"><g><path d="M 10.53125 -14.5 C 11.78125 -14.5 12.789062 -14.234375 13.5625 -13.703125 C 14.332031 -13.171875 14.894531 -12.425781 15.25 -11.46875 C 15.613281 -10.507812 15.796875 -9.394531 15.796875 -8.125 L 15.796875 -0.640625 C 15.796875 -0.210938 15.585938 0 15.171875 0 L 11.671875 0 C 11.253906 0 11.046875 -0.210938 11.046875 -0.640625 L 11.046875 -8.125 C 11.046875 -8.945312 10.878906 -9.578125 10.546875 -10.015625 C 10.210938 -10.460938 9.671875 -10.6875 8.921875 -10.6875 C 8.242188 -10.6875 7.65625 -10.4375 7.15625 -9.9375 C 6.664062 -9.445312 6.375 -8.765625 6.28125 -7.890625 L 6.28125 -0.640625 C 6.28125 -0.210938 6.070312 0 5.65625 0 L 2.15625 0 C 1.726562 0 1.515625 -0.210938 1.515625 -0.640625 L 1.515625 -14.3125 C 2.460938 -14.125 3.269531 -13.796875 3.9375 -13.328125 C 4.613281 -12.859375 5.144531 -12.269531 5.53125 -11.5625 C 6.25 -12.632812 7.03125 -13.390625 7.875 -13.828125 C 8.726562 -14.273438 9.613281 -14.5 10.53125 -14.5 Z M 10.53125 -14.5 "/></g></g></g><g fill="#ffffff" fill-opacity="1"><g transform="translate(156.473107, 422.946245)"><g/></g></g><g fill="#ffffff" fill-opacity="1"><g transform="translate(164.724138, 422.946245)"><g><path d="M 11.875 0.25 C 10.332031 0.25 8.890625 -0.0078125 7.546875 -0.53125 C 6.210938 -1.050781 5.035156 -1.796875 4.015625 -2.765625 C 3.003906 -3.742188 2.210938 -4.914062 1.640625 -6.28125 C 1.078125 -7.644531 0.796875 -9.171875 0.796875 -10.859375 C 0.796875 -12.222656 0.984375 -13.476562 1.359375 -14.625 C 1.742188 -15.769531 2.28125 -16.796875 2.96875 -17.703125 C 3.65625 -18.609375 4.460938 -19.375 5.390625 -20 C 6.316406 -20.625 7.332031 -21.097656 8.4375 -21.421875 C 9.539062 -21.753906 10.695312 -21.921875 11.90625 -21.921875 C 13.082031 -21.921875 14.203125 -21.765625 15.265625 -21.453125 C 16.328125 -21.148438 17.296875 -20.695312 18.171875 -20.09375 C 19.054688 -19.5 19.8125 -18.773438 20.4375 -17.921875 C 21.070312 -17.066406 21.535156 -16.109375 21.828125 -15.046875 C 21.890625 -14.816406 21.863281 -14.640625 21.75 -14.515625 C 21.644531 -14.398438 21.484375 -14.34375 21.265625 -14.34375 L 17.515625 -14.34375 C 17.191406 -14.34375 16.945312 -14.515625 16.78125 -14.859375 C 16.53125 -15.441406 16.160156 -15.941406 15.671875 -16.359375 C 15.179688 -16.773438 14.609375 -17.085938 13.953125 -17.296875 C 13.304688 -17.503906 12.613281 -17.609375 11.875 -17.609375 C 11 -17.609375 10.175781 -17.457031 9.40625 -17.15625 C 8.644531 -16.851562 7.972656 -16.410156 7.390625 -15.828125 C 6.816406 -15.253906 6.363281 -14.546875 6.03125 -13.703125 C 5.707031 -12.867188 5.546875 -11.921875 5.546875 -10.859375 C 5.546875 -9.773438 5.707031 -8.8125 6.03125 -7.96875 C 6.363281 -7.132812 6.816406 -6.425781 7.390625 -5.84375 C 7.972656 -5.257812 8.644531 -4.816406 9.40625 -4.515625 C 10.175781 -4.210938 11 -4.0625 11.875 -4.0625 C 12.625 -4.0625 13.328125 -4.171875 13.984375 -4.390625 C 14.640625 -4.609375 15.207031 -4.921875 15.6875 -5.328125 C 16.175781 -5.742188 16.539062 -6.253906 16.78125 -6.859375 C 16.945312 -7.191406 17.191406 -7.359375 17.515625 -7.359375 L 21.296875 -7.359375 C 21.515625 -7.359375 21.675781 -7.296875 21.78125 -7.171875 C 21.894531 -7.054688 21.921875 -6.890625 21.859375 -6.671875 C 21.566406 -5.578125 21.101562 -4.601562 20.46875 -3.75 C 19.832031 -2.894531 19.066406 -2.171875 18.171875 -1.578125 C 17.273438 -0.984375 16.289062 -0.53125 15.21875 -0.21875 C 14.144531 0.09375 13.03125 0.25 11.875 0.25 Z M 11.875 0.25 "/></g></g></g><g fill="#ffffff" fill-opacity="1"><g transform="translate(187.35099, 422.946245)"><g><path d="M 10.5625 -14.3125 C 11.8125 -14.3125 12.820312 -14.039062 13.59375 -13.5 C 14.363281 -12.96875 14.925781 -12.222656 15.28125 -11.265625 C 15.644531 -10.316406 15.828125 -9.207031 15.828125 -7.9375 L 15.828125 -0.640625 C 15.828125 -0.210938 15.617188 0 15.203125 0 L 11.703125 0 C 11.285156 0 11.078125 -0.210938 11.078125 -0.640625 L 11.078125 -7.9375 C 11.078125 -8.757812 10.910156 -9.382812 10.578125 -9.8125 C 10.242188 -10.25 9.703125 -10.46875 8.953125 -10.46875 C 8.453125 -10.46875 8 -10.304688 7.59375 -9.984375 C 7.195312 -9.671875 6.878906 -9.25 6.640625 -8.71875 C 6.398438 -8.195312 6.28125 -7.617188 6.28125 -6.984375 L 6.28125 -0.640625 C 6.28125 -0.210938 6.070312 0 5.65625 0 L 2.15625 0 C 1.726562 0 1.515625 -0.210938 1.515625 -0.640625 L 1.515625 -23.796875 C 3.066406 -23.484375 4.25 -22.8125 5.0625 -21.78125 C 5.875 -20.75 6.28125 -19.410156 6.28125 -17.765625 L 6.28125 -12.296875 C 6.757812 -12.890625 7.363281 -13.375 8.09375 -13.75 C 8.820312 -14.125 9.644531 -14.3125 10.5625 -14.3125 Z M 10.5625 -14.3125 "/></g></g></g><g fill="#ffffff" fill-opacity="1"><g transform="translate(204.487742, 422.946245)"><g><path d="M 9.015625 -14.5 C 10.078125 -14.5 11.070312 -14.335938 12 -14.015625 C 12.9375 -13.703125 13.757812 -13.238281 14.46875 -12.625 C 15.1875 -12.019531 15.742188 -11.269531 16.140625 -10.375 C 16.546875 -9.488281 16.75 -8.460938 16.75 -7.296875 L 16.75 -6.734375 C 16.75 -6.304688 16.539062 -6.09375 16.125 -6.09375 L 5.90625 -6.09375 C 5.96875 -5.132812 6.257812 -4.359375 6.78125 -3.765625 C 7.3125 -3.179688 8.023438 -2.890625 8.921875 -2.890625 C 9.617188 -2.890625 10.191406 -3.03125 10.640625 -3.3125 C 11.097656 -3.601562 11.421875 -3.957031 11.609375 -4.375 C 11.691406 -4.5625 11.785156 -4.695312 11.890625 -4.78125 C 12.003906 -4.875 12.144531 -4.921875 12.3125 -4.921875 L 15.828125 -4.921875 C 16.054688 -4.921875 16.222656 -4.851562 16.328125 -4.71875 C 16.441406 -4.582031 16.457031 -4.40625 16.375 -4.1875 C 16 -3.132812 15.453125 -2.257812 14.734375 -1.5625 C 14.023438 -0.875 13.1875 -0.359375 12.21875 -0.015625 C 11.25 0.328125 10.179688 0.5 9.015625 0.5 C 7.804688 0.5 6.703125 0.328125 5.703125 -0.015625 C 4.703125 -0.359375 3.84375 -0.851562 3.125 -1.5 C 2.40625 -2.144531 1.847656 -2.929688 1.453125 -3.859375 C 1.054688 -4.785156 0.859375 -5.828125 0.859375 -6.984375 C 0.859375 -8.117188 1.0625 -9.148438 1.46875 -10.078125 C 1.875 -11.003906 2.441406 -11.796875 3.171875 -12.453125 C 3.898438 -13.109375 4.757812 -13.613281 5.75 -13.96875 C 6.75 -14.320312 7.835938 -14.5 9.015625 -14.5 Z M 5.96875 -8.65625 L 11.703125 -8.65625 C 11.660156 -9.425781 11.382812 -10.050781 10.875 -10.53125 C 10.375 -11.019531 9.703125 -11.265625 8.859375 -11.265625 C 7.972656 -11.265625 7.300781 -11.019531 6.84375 -10.53125 C 6.394531 -10.050781 6.101562 -9.425781 5.96875 -8.65625 Z M 5.96875 -8.65625 "/></g></g></g><g fill="#ffffff" fill-opacity="1"><g transform="translate(222.163982, 422.946245)"><g><path d="M 9.9375 -23.796875 L 10.59375 -23.796875 C 11.019531 -23.796875 11.234375 -23.585938 11.234375 -23.171875 L 11.234375 -20.09375 C 11.234375 -19.664062 11.019531 -19.453125 10.59375 -19.453125 C 10.0625 -19.453125 9.59375 -19.359375 9.1875 -19.171875 C 8.789062 -18.984375 8.488281 -18.640625 8.28125 -18.140625 C 8.070312 -17.648438 7.96875 -16.9375 7.96875 -16 L 7.96875 -14 L 10.1875 -14 C 10.613281 -14 10.828125 -13.785156 10.828125 -13.359375 L 10.828125 -10.953125 C 10.828125 -10.523438 10.613281 -10.3125 10.1875 -10.3125 L 7.96875 -10.3125 L 7.96875 -0.640625 C 7.96875 -0.210938 7.753906 0 7.328125 0 L 3.84375 0 C 3.414062 0 3.203125 -0.210938 3.203125 -0.640625 L 3.203125 -10.3125 L 1.171875 -10.3125 C 0.753906 -10.3125 0.546875 -10.523438 0.546875 -10.953125 L 0.546875 -13.359375 C 0.546875 -13.785156 0.753906 -14 1.171875 -14 L 3.203125 -14 L 3.203125 -16 C 3.203125 -17.238281 3.351562 -18.300781 3.65625 -19.1875 C 3.957031 -20.082031 4.359375 -20.828125 4.859375 -21.421875 C 5.359375 -22.023438 5.90625 -22.5 6.5 -22.84375 C 7.101562 -23.1875 7.703125 -23.429688 8.296875 -23.578125 C 8.898438 -23.722656 9.445312 -23.796875 9.9375 -23.796875 Z M 9.9375 -23.796875 "/></g></g></g><g fill="#ffffff" fill-opacity="1"><g transform="translate(57.796073, 443.18894)"><g><path d="M 6.109375 -1.9375 L 2.3125 -1.9375 L 1.609375 0 L 0.40625 0 L 3.5625 -8.65625 L 4.875 -8.65625 L 8 0 L 6.796875 0 Z M 5.78125 -2.859375 L 4.203125 -7.25 L 2.640625 -2.859375 Z M 5.78125 -2.859375 "/></g></g></g><g fill="#ffffff" fill-opacity="1"><g transform="translate(66.215407, 443.18894)"><g><path d="M 2.09375 -8.703125 L 2.09375 0 L 0.96875 0 L 0.96875 -8.703125 Z M 2.09375 -8.703125 "/></g></g></g><g fill="#ffffff" fill-opacity="1"><g transform="translate(69.288337, 443.18894)"><g><path d="M 5.71875 -5.0625 L 5.71875 -4.09375 L 0.734375 -4.09375 L 0.734375 -5.0625 Z M 5.71875 -5.0625 "/></g></g></g><g fill="#ffffff" fill-opacity="1"><g transform="translate(76.171211, 443.18894)"><g><path d="M 6.78125 -6.15625 C 6.78125 -5.425781 6.53125 -4.820312 6.03125 -4.34375 C 5.539062 -3.875 4.785156 -3.640625 3.765625 -3.640625 L 2.09375 -3.640625 L 2.09375 0 L 0.96875 0 L 0.96875 -8.703125 L 3.765625 -8.703125 C 4.753906 -8.703125 5.503906 -8.460938 6.015625 -7.984375 C 6.523438 -7.515625 6.78125 -6.90625 6.78125 -6.15625 Z M 3.765625 -4.5625 C 4.398438 -4.5625 4.867188 -4.695312 5.171875 -4.96875 C 5.472656 -5.25 5.625 -5.644531 5.625 -6.15625 C 5.625 -7.226562 5.003906 -7.765625 3.765625 -7.765625 L 2.09375 -7.765625 L 2.09375 -4.5625 Z M 3.765625 -4.5625 "/></g></g></g><g fill="#ffffff" fill-opacity="1"><g transform="translate(83.403848, 443.18894)"><g><path d="M 3.9375 0.109375 C 3.300781 0.109375 2.722656 -0.0351562 2.203125 -0.328125 C 1.679688 -0.617188 1.269531 -1.03125 0.96875 -1.5625 C 0.675781 -2.101562 0.53125 -2.726562 0.53125 -3.4375 C 0.53125 -4.132812 0.679688 -4.75 0.984375 -5.28125 C 1.296875 -5.820312 1.710938 -6.234375 2.234375 -6.515625 C 2.753906 -6.804688 3.34375 -6.953125 4 -6.953125 C 4.644531 -6.953125 5.226562 -6.804688 5.75 -6.515625 C 6.28125 -6.234375 6.695312 -5.828125 7 -5.296875 C 7.300781 -4.765625 7.453125 -4.144531 7.453125 -3.4375 C 7.453125 -2.726562 7.296875 -2.101562 6.984375 -1.5625 C 6.671875 -1.03125 6.25 -0.617188 5.71875 -0.328125 C 5.1875 -0.0351562 4.59375 0.109375 3.9375 0.109375 Z M 3.9375 -0.890625 C 4.351562 -0.890625 4.738281 -0.984375 5.09375 -1.171875 C 5.445312 -1.359375 5.734375 -1.644531 5.953125 -2.03125 C 6.179688 -2.414062 6.296875 -2.882812 6.296875 -3.4375 C 6.296875 -3.976562 6.1875 -4.441406 5.96875 -4.828125 C 5.75 -5.210938 5.460938 -5.5 5.109375 -5.6875 C 4.765625 -5.875 4.390625 -5.96875 3.984375 -5.96875 C 3.566406 -5.96875 3.1875 -5.875 2.84375 -5.6875 C 2.5 -5.5 2.222656 -5.210938 2.015625 -4.828125 C 1.804688 -4.441406 1.703125 -3.976562 1.703125 -3.4375 C 1.703125 -2.875 1.800781 -2.398438 2 -2.015625 C 2.207031 -1.640625 2.476562 -1.359375 2.8125 -1.171875 C 3.15625 -0.984375 3.53125 -0.890625 3.9375 -0.890625 Z M 3.9375 -0.890625 "/></g></g></g><g fill="#ffffff" fill-opacity="1"><g transform="translate(91.39847, 443.18894)"><g><path d="M 10.078125 -6.84375 L 7.9375 0 L 6.765625 0 L 5.125 -5.4375 L 3.46875 0 L 2.296875 0 L 0.15625 -6.84375 L 1.3125 -6.84375 L 2.890625 -1.09375 L 4.578125 -6.84375 L 5.75 -6.84375 L 7.40625 -1.09375 L 8.953125 -6.84375 Z M 10.078125 -6.84375 "/></g></g></g><g fill="#ffffff" fill-opacity="1"><g transform="translate(101.641582, 443.18894)"><g><path d="M 7.203125 -3.6875 C 7.203125 -3.46875 7.191406 -3.238281 7.171875 -3 L 1.703125 -3 C 1.742188 -2.320312 1.972656 -1.789062 2.390625 -1.40625 C 2.804688 -1.03125 3.316406 -0.84375 3.921875 -0.84375 C 4.410156 -0.84375 4.816406 -0.957031 5.140625 -1.1875 C 5.472656 -1.414062 5.707031 -1.722656 5.84375 -2.109375 L 7.0625 -2.109375 C 6.882812 -1.453125 6.519531 -0.914062 5.96875 -0.5 C 5.414062 -0.09375 4.734375 0.109375 3.921875 0.109375 C 3.273438 0.109375 2.691406 -0.0351562 2.171875 -0.328125 C 1.660156 -0.617188 1.257812 -1.03125 0.96875 -1.5625 C 0.675781 -2.101562 0.53125 -2.726562 0.53125 -3.4375 C 0.53125 -4.144531 0.671875 -4.765625 0.953125 -5.296875 C 1.242188 -5.828125 1.644531 -6.234375 2.15625 -6.515625 C 2.664062 -6.804688 3.253906 -6.953125 3.921875 -6.953125 C 4.566406 -6.953125 5.140625 -6.8125 5.640625 -6.53125 C 6.140625 -6.25 6.523438 -5.859375 6.796875 -5.359375 C 7.066406 -4.867188 7.203125 -4.3125 7.203125 -3.6875 Z M 6.03125 -3.921875 C 6.03125 -4.347656 5.929688 -4.71875 5.734375 -5.03125 C 5.546875 -5.34375 5.285156 -5.582031 4.953125 -5.75 C 4.628906 -5.914062 4.269531 -6 3.875 -6 C 3.300781 -6 2.8125 -5.8125 2.40625 -5.4375 C 2 -5.070312 1.765625 -4.566406 1.703125 -3.921875 Z M 6.03125 -3.921875 "/></g></g></g><g fill="#ffffff" fill-opacity="1"><g transform="translate(109.386374, 443.18894)"><g><path d="M 2.09375 -5.734375 C 2.289062 -6.117188 2.578125 -6.421875 2.953125 -6.640625 C 3.328125 -6.859375 3.78125 -6.96875 4.3125 -6.96875 L 4.3125 -5.796875 L 4 -5.796875 C 2.726562 -5.796875 2.09375 -5.101562 2.09375 -3.71875 L 2.09375 0 L 0.96875 0 L 0.96875 -6.84375 L 2.09375 -6.84375 Z M 2.09375 -5.734375 "/></g></g></g><g fill="#ffffff" fill-opacity="1"><g transform="translate(114.045743, 443.18894)"><g><path d="M 7.203125 -3.6875 C 7.203125 -3.46875 7.191406 -3.238281 7.171875 -3 L 1.703125 -3 C 1.742188 -2.320312 1.972656 -1.789062 2.390625 -1.40625 C 2.804688 -1.03125 3.316406 -0.84375 3.921875 -0.84375 C 4.410156 -0.84375 4.816406 -0.957031 5.140625 -1.1875 C 5.472656 -1.414062 5.707031 -1.722656 5.84375 -2.109375 L 7.0625 -2.109375 C 6.882812 -1.453125 6.519531 -0.914062 5.96875 -0.5 C 5.414062 -0.09375 4.734375 0.109375 3.921875 0.109375 C 3.273438 0.109375 2.691406 -0.0351562 2.171875 -0.328125 C 1.660156 -0.617188 1.257812 -1.03125 0.96875 -1.5625 C 0.675781 -2.101562 0.53125 -2.726562 0.53125 -3.4375 C 0.53125 -4.144531 0.671875 -4.765625 0.953125 -5.296875 C 1.242188 -5.828125 1.644531 -6.234375 2.15625 -6.515625 C 2.664062 -6.804688 3.253906 -6.953125 3.921875 -6.953125 C 4.566406 -6.953125 5.140625 -6.8125 5.640625 -6.53125 C 6.140625 -6.25 6.523438 -5.859375 6.796875 -5.359375 C 7.066406 -4.867188 7.203125 -4.3125 7.203125 -3.6875 Z M 6.03125 -3.921875 C 6.03125 -4.347656 5.929688 -4.71875 5.734375 -5.03125 C 5.546875 -5.34375 5.285156 -5.582031 4.953125 -5.75 C 4.628906 -5.914062 4.269531 -6 3.875 -6 C 3.300781 -6 2.8125 -5.8125 2.40625 -5.4375 C 2 -5.070312 1.765625 -4.566406 1.703125 -3.921875 Z M 6.03125 -3.921875 "/></g></g></g><g fill="#ffffff" fill-opacity="1"><g transform="translate(121.790534, 443.18894)"><g><path d="M 0.53125 -3.453125 C 0.53125 -4.148438 0.671875 -4.757812 0.953125 -5.28125 C 1.242188 -5.8125 1.632812 -6.222656 2.125 -6.515625 C 2.625 -6.804688 3.179688 -6.953125 3.796875 -6.953125 C 4.328125 -6.953125 4.820312 -6.828125 5.28125 -6.578125 C 5.738281 -6.335938 6.085938 -6.019531 6.328125 -5.625 L 6.328125 -9.234375 L 7.484375 -9.234375 L 7.484375 0 L 6.328125 0 L 6.328125 -1.28125 C 6.109375 -0.875 5.773438 -0.539062 5.328125 -0.28125 C 4.890625 -0.0195312 4.375 0.109375 3.78125 0.109375 C 3.175781 0.109375 2.625 -0.0351562 2.125 -0.328125 C 1.632812 -0.628906 1.242188 -1.050781 0.953125 -1.59375 C 0.671875 -2.132812 0.53125 -2.753906 0.53125 -3.453125 Z M 6.328125 -3.4375 C 6.328125 -3.945312 6.222656 -4.394531 6.015625 -4.78125 C 5.804688 -5.164062 5.523438 -5.457031 5.171875 -5.65625 C 4.816406 -5.863281 4.425781 -5.96875 4 -5.96875 C 3.582031 -5.96875 3.195312 -5.867188 2.84375 -5.671875 C 2.5 -5.472656 2.222656 -5.179688 2.015625 -4.796875 C 1.804688 -4.410156 1.703125 -3.960938 1.703125 -3.453125 C 1.703125 -2.921875 1.804688 -2.460938 2.015625 -2.078125 C 2.222656 -1.691406 2.5 -1.394531 2.84375 -1.1875 C 3.195312 -0.988281 3.582031 -0.890625 4 -0.890625 C 4.425781 -0.890625 4.816406 -0.988281 5.171875 -1.1875 C 5.523438 -1.394531 5.804688 -1.691406 6.015625 -2.078125 C 6.222656 -2.460938 6.328125 -2.914062 6.328125 -3.4375 Z M 6.328125 -3.4375 "/></g></g></g><g fill="#ffffff" fill-opacity="1"><g transform="translate(130.234854, 443.18894)"><g/></g></g><g fill="#ffffff" fill-opacity="1"><g transform="translate(133.570107, 443.18894)"><g><path d="M 0.53125 -4.359375 C 0.53125 -5.203125 0.722656 -5.960938 1.109375 -6.640625 C 1.492188 -7.328125 2.015625 -7.859375 2.671875 -8.234375 C 3.335938 -8.617188 4.070312 -8.8125 4.875 -8.8125 C 5.820312 -8.8125 6.648438 -8.582031 7.359375 -8.125 C 8.066406 -7.664062 8.582031 -7.019531 8.90625 -6.1875 L 7.546875 -6.1875 C 7.304688 -6.707031 6.957031 -7.109375 6.5 -7.390625 C 6.050781 -7.671875 5.507812 -7.8125 4.875 -7.8125 C 4.269531 -7.8125 3.722656 -7.671875 3.234375 -7.390625 C 2.753906 -7.109375 2.378906 -6.707031 2.109375 -6.1875 C 1.835938 -5.664062 1.703125 -5.054688 1.703125 -4.359375 C 1.703125 -3.671875 1.835938 -3.066406 2.109375 -2.546875 C 2.378906 -2.023438 2.753906 -1.617188 3.234375 -1.328125 C 3.722656 -1.046875 4.269531 -0.90625 4.875 -0.90625 C 5.507812 -0.90625 6.050781 -1.046875 6.5 -1.328125 C 6.957031 -1.609375 7.304688 -2.007812 7.546875 -2.53125 L 8.90625 -2.53125 C 8.582031 -1.695312 8.066406 -1.050781 7.359375 -0.59375 C 6.648438 -0.144531 5.820312 0.078125 4.875 0.078125 C 4.070312 0.078125 3.335938 -0.109375 2.671875 -0.484375 C 2.015625 -0.867188 1.492188 -1.394531 1.109375 -2.0625 C 0.722656 -2.738281 0.53125 -3.503906 0.53125 -4.359375 Z M 0.53125 -4.359375 "/></g></g></g><g fill="#ffffff" fill-opacity="1"><g transform="translate(143.213616, 443.18894)"><g><path d="M 3.9375 0.109375 C 3.300781 0.109375 2.722656 -0.0351562 2.203125 -0.328125 C 1.679688 -0.617188 1.269531 -1.03125 0.96875 -1.5625 C 0.675781 -2.101562 0.53125 -2.726562 0.53125 -3.4375 C 0.53125 -4.132812 0.679688 -4.75 0.984375 -5.28125 C 1.296875 -5.820312 1.710938 -6.234375 2.234375 -6.515625 C 2.753906 -6.804688 3.34375 -6.953125 4 -6.953125 C 4.644531 -6.953125 5.226562 -6.804688 5.75 -6.515625 C 6.28125 -6.234375 6.695312 -5.828125 7 -5.296875 C 7.300781 -4.765625 7.453125 -4.144531 7.453125 -3.4375 C 7.453125 -2.726562 7.296875 -2.101562 6.984375 -1.5625 C 6.671875 -1.03125 6.25 -0.617188 5.71875 -0.328125 C 5.1875 -0.0351562 4.59375 0.109375 3.9375 0.109375 Z M 3.9375 -0.890625 C 4.351562 -0.890625 4.738281 -0.984375 5.09375 -1.171875 C 5.445312 -1.359375 5.734375 -1.644531 5.953125 -2.03125 C 6.179688 -2.414062 6.296875 -2.882812 6.296875 -3.4375 C 6.296875 -3.976562 6.1875 -4.441406 5.96875 -4.828125 C 5.75 -5.210938 5.460938 -5.5 5.109375 -5.6875 C 4.765625 -5.875 4.390625 -5.96875 3.984375 -5.96875 C 3.566406 -5.96875 3.1875 -5.875 2.84375 -5.6875 C 2.5 -5.5 2.222656 -5.210938 2.015625 -4.828125 C 1.804688 -4.441406 1.703125 -3.976562 1.703125 -3.4375 C 1.703125 -2.875 1.800781 -2.398438 2 -2.015625 C 2.207031 -1.640625 2.476562 -1.359375 2.8125 -1.171875 C 3.15625 -0.984375 3.53125 -0.890625 3.9375 -0.890625 Z M 3.9375 -0.890625 "/></g></g></g><g fill="#ffffff" fill-opacity="1"><g transform="translate(151.208238, 443.18894)"><g><path d="M 3.9375 0.109375 C 3.300781 0.109375 2.722656 -0.0351562 2.203125 -0.328125 C 1.679688 -0.617188 1.269531 -1.03125 0.96875 -1.5625 C 0.675781 -2.101562 0.53125 -2.726562 0.53125 -3.4375 C 0.53125 -4.132812 0.679688 -4.75 0.984375 -5.28125 C 1.296875 -5.820312 1.710938 -6.234375 2.234375 -6.515625 C 2.753906 -6.804688 3.34375 -6.953125 4 -6.953125 C 4.644531 -6.953125 5.226562 -6.804688 5.75 -6.515625 C 6.28125 -6.234375 6.695312 -5.828125 7 -5.296875 C 7.300781 -4.765625 7.453125 -4.144531 7.453125 -3.4375 C 7.453125 -2.726562 7.296875 -2.101562 6.984375 -1.5625 C 6.671875 -1.03125 6.25 -0.617188 5.71875 -0.328125 C 5.1875 -0.0351562 4.59375 0.109375 3.9375 0.109375 Z M 3.9375 -0.890625 C 4.351562 -0.890625 4.738281 -0.984375 5.09375 -1.171875 C 5.445312 -1.359375 5.734375 -1.644531 5.953125 -2.03125 C 6.179688 -2.414062 6.296875 -2.882812 6.296875 -3.4375 C 6.296875 -3.976562 6.1875 -4.441406 5.96875 -4.828125 C 5.75 -5.210938 5.460938 -5.5 5.109375 -5.6875 C 4.765625 -5.875 4.390625 -5.96875 3.984375 -5.96875 C 3.566406 -5.96875 3.1875 -5.875 2.84375 -5.6875 C 2.5 -5.5 2.222656 -5.210938 2.015625 -4.828125 C 1.804688 -4.441406 1.703125 -3.976562 1.703125 -3.4375 C 1.703125 -2.875 1.800781 -2.398438 2 -2.015625 C 2.207031 -1.640625 2.476562 -1.359375 2.8125 -1.171875 C 3.15625 -0.984375 3.53125 -0.890625 3.9375 -0.890625 Z M 3.9375 -0.890625 "/></g></g></g><g fill="#ffffff" fill-opacity="1"><g transform="translate(159.20286, 443.18894)"><g><path d="M 4.78125 0 L 2.09375 -3.015625 L 2.09375 0 L 0.96875 0 L 0.96875 -9.234375 L 2.09375 -9.234375 L 2.09375 -3.8125 L 4.734375 -6.84375 L 6.3125 -6.84375 L 3.09375 -3.4375 L 6.328125 0 Z M 4.78125 0 "/></g></g></g><g fill="#ffffff" fill-opacity="1"><g transform="translate(165.636035, 443.18894)"><g><path d="M 1.546875 -7.953125 C 1.328125 -7.953125 1.144531 -8.023438 1 -8.171875 C 0.851562 -8.328125 0.78125 -8.507812 0.78125 -8.71875 C 0.78125 -8.9375 0.851562 -9.117188 1 -9.265625 C 1.144531 -9.421875 1.328125 -9.5 1.546875 -9.5 C 1.753906 -9.5 1.929688 -9.421875 2.078125 -9.265625 C 2.222656 -9.117188 2.296875 -8.9375 2.296875 -8.71875 C 2.296875 -8.507812 2.222656 -8.328125 2.078125 -8.171875 C 1.929688 -8.023438 1.753906 -7.953125 1.546875 -7.953125 Z M 2.09375 -6.84375 L 2.09375 0 L 0.96875 0 L 0.96875 -6.84375 Z M 2.09375 -6.84375 "/></g></g></g><g fill="#ffffff" fill-opacity="1"><g transform="translate(168.708965, 443.18894)"><g><path d="M 4.296875 -6.96875 C 5.128906 -6.96875 5.800781 -6.710938 6.3125 -6.203125 C 6.832031 -5.703125 7.09375 -4.976562 7.09375 -4.03125 L 7.09375 0 L 5.96875 0 L 5.96875 -3.875 C 5.96875 -4.550781 5.796875 -5.070312 5.453125 -5.4375 C 5.109375 -5.800781 4.644531 -5.984375 4.0625 -5.984375 C 3.457031 -5.984375 2.976562 -5.796875 2.625 -5.421875 C 2.269531 -5.046875 2.09375 -4.5 2.09375 -3.78125 L 2.09375 0 L 0.96875 0 L 0.96875 -6.84375 L 2.09375 -6.84375 L 2.09375 -5.875 C 2.320312 -6.21875 2.628906 -6.484375 3.015625 -6.671875 C 3.398438 -6.867188 3.828125 -6.96875 4.296875 -6.96875 Z M 4.296875 -6.96875 "/></g></g></g><g fill="#ffffff" fill-opacity="1"><g transform="translate(176.703587, 443.18894)"><g><path d="M 3.78125 -6.953125 C 4.375 -6.953125 4.890625 -6.820312 5.328125 -6.5625 C 5.773438 -6.3125 6.109375 -5.988281 6.328125 -5.59375 L 6.328125 -6.84375 L 7.484375 -6.84375 L 7.484375 0.15625 C 7.484375 0.78125 7.347656 1.332031 7.078125 1.8125 C 6.804688 2.300781 6.421875 2.679688 5.921875 2.953125 C 5.429688 3.234375 4.859375 3.375 4.203125 3.375 C 3.304688 3.375 2.554688 3.160156 1.953125 2.734375 C 1.359375 2.304688 1.007812 1.726562 0.90625 1 L 2.015625 1 C 2.140625 1.414062 2.398438 1.75 2.796875 2 C 3.191406 2.257812 3.660156 2.390625 4.203125 2.390625 C 4.828125 2.390625 5.335938 2.191406 5.734375 1.796875 C 6.128906 1.410156 6.328125 0.863281 6.328125 0.15625 L 6.328125 -1.28125 C 6.109375 -0.882812 5.773438 -0.550781 5.328125 -0.28125 C 4.890625 -0.0195312 4.375 0.109375 3.78125 0.109375 C 3.175781 0.109375 2.625 -0.0351562 2.125 -0.328125 C 1.632812 -0.628906 1.242188 -1.050781 0.953125 -1.59375 C 0.671875 -2.132812 0.53125 -2.753906 0.53125 -3.453125 C 0.53125 -4.148438 0.671875 -4.757812 0.953125 -5.28125 C 1.242188 -5.8125 1.632812 -6.222656 2.125 -6.515625 C 2.625 -6.804688 3.175781 -6.953125 3.78125 -6.953125 Z M 6.328125 -3.4375 C 6.328125 -3.945312 6.222656 -4.394531 6.015625 -4.78125 C 5.804688 -5.164062 5.523438 -5.457031 5.171875 -5.65625 C 4.816406 -5.863281 4.425781 -5.96875 4 -5.96875 C 3.582031 -5.96875 3.195312 -5.867188 2.84375 -5.671875 C 2.5 -5.472656 2.222656 -5.179688 2.015625 -4.796875 C 1.804688 -4.410156 1.703125 -3.960938 1.703125 -3.453125 C 1.703125 -2.921875 1.804688 -2.460938 2.015625 -2.078125 C 2.222656 -1.691406 2.5 -1.394531 2.84375 -1.1875 C 3.195312 -0.988281 3.582031 -0.890625 4 -0.890625 C 4.425781 -0.890625 4.816406 -0.988281 5.171875 -1.1875 C 5.523438 -1.394531 5.804688 -1.691406 6.015625 -2.078125 C 6.222656 -2.460938 6.328125 -2.914062 6.328125 -3.4375 Z M 6.328125 -3.4375 "/></g></g></g><g fill="#ffffff" fill-opacity="1"><g transform="translate(185.147907, 443.18894)"><g><path d="M 2.140625 -1.578125 L 0.734375 1.78125 L -0.03125 1.78125 L 0.890625 -1.578125 Z M 2.140625 -1.578125 "/></g></g></g><g fill="#ffffff" fill-opacity="1"><g transform="translate(187.621242, 443.18894)"><g/></g></g><g fill="#ffffff" fill-opacity="1"><g transform="translate(190.956494, 443.18894)"><g><path d="M 3.71875 0.09375 C 3.144531 0.09375 2.628906 -0.0078125 2.171875 -0.21875 C 1.722656 -0.425781 1.367188 -0.707031 1.109375 -1.0625 C 0.847656 -1.425781 0.71875 -1.847656 0.71875 -2.328125 L 1.921875 -2.328125 C 1.960938 -1.910156 2.128906 -1.5625 2.421875 -1.28125 C 2.722656 -1.007812 3.15625 -0.875 3.71875 -0.875 C 4.257812 -0.875 4.6875 -1.007812 5 -1.28125 C 5.3125 -1.550781 5.46875 -1.898438 5.46875 -2.328125 C 5.46875 -2.660156 5.375 -2.929688 5.1875 -3.140625 C 5.007812 -3.347656 4.78125 -3.503906 4.5 -3.609375 C 4.226562 -3.710938 3.859375 -3.828125 3.390625 -3.953125 C 2.816406 -4.109375 2.359375 -4.257812 2.015625 -4.40625 C 1.671875 -4.550781 1.375 -4.785156 1.125 -5.109375 C 0.882812 -5.429688 0.765625 -5.863281 0.765625 -6.40625 C 0.765625 -6.875 0.882812 -7.289062 1.125 -7.65625 C 1.363281 -8.03125 1.703125 -8.316406 2.140625 -8.515625 C 2.578125 -8.710938 3.078125 -8.8125 3.640625 -8.8125 C 4.460938 -8.8125 5.128906 -8.609375 5.640625 -8.203125 C 6.160156 -7.796875 6.457031 -7.253906 6.53125 -6.578125 L 5.28125 -6.578125 C 5.238281 -6.910156 5.0625 -7.203125 4.75 -7.453125 C 4.445312 -7.710938 4.039062 -7.84375 3.53125 -7.84375 C 3.0625 -7.84375 2.675781 -7.71875 2.375 -7.46875 C 2.070312 -7.226562 1.921875 -6.882812 1.921875 -6.4375 C 1.921875 -6.125 2.007812 -5.867188 2.1875 -5.671875 C 2.363281 -5.472656 2.582031 -5.320312 2.84375 -5.21875 C 3.113281 -5.113281 3.484375 -4.992188 3.953125 -4.859375 C 4.523438 -4.703125 4.988281 -4.546875 5.34375 -4.390625 C 5.695312 -4.234375 5.992188 -3.992188 6.234375 -3.671875 C 6.484375 -3.359375 6.609375 -2.925781 6.609375 -2.375 C 6.609375 -1.945312 6.492188 -1.546875 6.265625 -1.171875 C 6.046875 -0.796875 5.71875 -0.488281 5.28125 -0.25 C 4.84375 -0.0195312 4.320312 0.09375 3.71875 0.09375 Z M 3.71875 0.09375 "/></g></g></g><g fill="#ffffff" fill-opacity="1"><g transform="translate(198.28905, 443.18894)"><g><path d="M 1.546875 -7.953125 C 1.328125 -7.953125 1.144531 -8.023438 1 -8.171875 C 0.851562 -8.328125 0.78125 -8.507812 0.78125 -8.71875 C 0.78125 -8.9375 0.851562 -9.117188 1 -9.265625 C 1.144531 -9.421875 1.328125 -9.5 1.546875 -9.5 C 1.753906 -9.5 1.929688 -9.421875 2.078125 -9.265625 C 2.222656 -9.117188 2.296875 -8.9375 2.296875 -8.71875 C 2.296875 -8.507812 2.222656 -8.328125 2.078125 -8.171875 C 1.929688 -8.023438 1.753906 -7.953125 1.546875 -7.953125 Z M 2.09375 -6.84375 L 2.09375 0 L 0.96875 0 L 0.96875 -6.84375 Z M 2.09375 -6.84375 "/></g></g></g><g fill="#ffffff" fill-opacity="1"><g transform="translate(201.361988, 443.18894)"><g><path d="M 9.1875 -6.96875 C 9.71875 -6.96875 10.191406 -6.851562 10.609375 -6.625 C 11.023438 -6.40625 11.351562 -6.078125 11.59375 -5.640625 C 11.832031 -5.203125 11.953125 -4.664062 11.953125 -4.03125 L 11.953125 0 L 10.84375 0 L 10.84375 -3.875 C 10.84375 -4.550781 10.671875 -5.070312 10.328125 -5.4375 C 9.992188 -5.800781 9.539062 -5.984375 8.96875 -5.984375 C 8.375 -5.984375 7.898438 -5.789062 7.546875 -5.40625 C 7.203125 -5.03125 7.03125 -4.484375 7.03125 -3.765625 L 7.03125 0 L 5.90625 0 L 5.90625 -3.875 C 5.90625 -4.550781 5.734375 -5.070312 5.390625 -5.4375 C 5.054688 -5.800781 4.601562 -5.984375 4.03125 -5.984375 C 3.4375 -5.984375 2.960938 -5.789062 2.609375 -5.40625 C 2.265625 -5.03125 2.09375 -4.484375 2.09375 -3.765625 L 2.09375 0 L 0.96875 0 L 0.96875 -6.84375 L 2.09375 -6.84375 L 2.09375 -5.859375 C 2.320312 -6.210938 2.625 -6.484375 3 -6.671875 C 3.382812 -6.867188 3.800781 -6.96875 4.25 -6.96875 C 4.832031 -6.96875 5.34375 -6.835938 5.78125 -6.578125 C 6.21875 -6.316406 6.546875 -5.9375 6.765625 -5.4375 C 6.953125 -5.925781 7.265625 -6.300781 7.703125 -6.5625 C 8.148438 -6.832031 8.644531 -6.96875 9.1875 -6.96875 Z M 9.1875 -6.96875 "/></g></g></g><g fill="#ffffff" fill-opacity="1"><g transform="translate(214.228323, 443.18894)"><g><path d="M 2.09375 -5.578125 C 2.320312 -5.972656 2.65625 -6.300781 3.09375 -6.5625 C 3.539062 -6.820312 4.0625 -6.953125 4.65625 -6.953125 C 5.257812 -6.953125 5.804688 -6.804688 6.296875 -6.515625 C 6.796875 -6.222656 7.1875 -5.8125 7.46875 -5.28125 C 7.757812 -4.757812 7.90625 -4.148438 7.90625 -3.453125 C 7.90625 -2.753906 7.757812 -2.132812 7.46875 -1.59375 C 7.1875 -1.050781 6.796875 -0.628906 6.296875 -0.328125 C 5.804688 -0.0351562 5.257812 0.109375 4.65625 0.109375 C 4.070312 0.109375 3.554688 -0.0195312 3.109375 -0.28125 C 2.671875 -0.539062 2.332031 -0.867188 2.09375 -1.265625 L 2.09375 3.25 L 0.96875 3.25 L 0.96875 -6.84375 L 2.09375 -6.84375 Z M 6.734375 -3.453125 C 6.734375 -3.960938 6.628906 -4.410156 6.421875 -4.796875 C 6.222656 -5.179688 5.945312 -5.472656 5.59375 -5.671875 C 5.238281 -5.867188 4.847656 -5.96875 4.421875 -5.96875 C 4.003906 -5.96875 3.617188 -5.863281 3.265625 -5.65625 C 2.910156 -5.457031 2.625 -5.160156 2.40625 -4.765625 C 2.195312 -4.378906 2.09375 -3.9375 2.09375 -3.4375 C 2.09375 -2.914062 2.195312 -2.460938 2.40625 -2.078125 C 2.625 -1.691406 2.910156 -1.394531 3.265625 -1.1875 C 3.617188 -0.988281 4.003906 -0.890625 4.421875 -0.890625 C 4.847656 -0.890625 5.238281 -0.988281 5.59375 -1.1875 C 5.945312 -1.394531 6.222656 -1.691406 6.421875 -2.078125 C 6.628906 -2.460938 6.734375 -2.921875 6.734375 -3.453125 Z M 6.734375 -3.453125 "/></g></g></g><g fill="#ffffff" fill-opacity="1"><g transform="translate(222.672635, 443.18894)"><g><path d="M 2.09375 -9.234375 L 2.09375 0 L 0.96875 0 L 0.96875 -9.234375 Z M 2.09375 -9.234375 "/></g></g></g><g fill="#ffffff" fill-opacity="1"><g transform="translate(225.745573, 443.18894)"><g><path d="M 1.546875 -7.953125 C 1.328125 -7.953125 1.144531 -8.023438 1 -8.171875 C 0.851562 -8.328125 0.78125 -8.507812 0.78125 -8.71875 C 0.78125 -8.9375 0.851562 -9.117188 1 -9.265625 C 1.144531 -9.421875 1.328125 -9.5 1.546875 -9.5 C 1.753906 -9.5 1.929688 -9.421875 2.078125 -9.265625 C 2.222656 -9.117188 2.296875 -8.9375 2.296875 -8.71875 C 2.296875 -8.507812 2.222656 -8.328125 2.078125 -8.171875 C 1.929688 -8.023438 1.753906 -7.953125 1.546875 -7.953125 Z M 2.09375 -6.84375 L 2.09375 0 L 0.96875 0 L 0.96875 -6.84375 Z M 2.09375 -6.84375 "/></g></g></g><g fill="#ffffff" fill-opacity="1"><g transform="translate(228.81851, 443.18894)"><g><path d="M 3.75 -5.90625 L 2.3125 -5.90625 L 2.3125 0 L 1.171875 0 L 1.171875 -5.90625 L 0.28125 -5.90625 L 0.28125 -6.84375 L 1.171875 -6.84375 L 1.171875 -7.328125 C 1.171875 -8.097656 1.367188 -8.65625 1.765625 -9 C 2.160156 -9.351562 2.796875 -9.53125 3.671875 -9.53125 L 3.671875 -8.59375 C 3.171875 -8.59375 2.816406 -8.492188 2.609375 -8.296875 C 2.410156 -8.097656 2.3125 -7.773438 2.3125 -7.328125 L 2.3125 -6.84375 L 3.75 -6.84375 Z M 3.75 -5.90625 "/></g></g></g><g fill="#ffffff" fill-opacity="1"><g transform="translate(232.928255, 443.18894)"><g><path d="M 1.546875 -7.953125 C 1.328125 -7.953125 1.144531 -8.023438 1 -8.171875 C 0.851562 -8.328125 0.78125 -8.507812 0.78125 -8.71875 C 0.78125 -8.9375 0.851562 -9.117188 1 -9.265625 C 1.144531 -9.421875 1.328125 -9.5 1.546875 -9.5 C 1.753906 -9.5 1.929688 -9.421875 2.078125 -9.265625 C 2.222656 -9.117188 2.296875 -8.9375 2.296875 -8.71875 C 2.296875 -8.507812 2.222656 -8.328125 2.078125 -8.171875 C 1.929688 -8.023438 1.753906 -7.953125 1.546875 -7.953125 Z M 2.09375 -6.84375 L 2.09375 0 L 0.96875 0 L 0.96875 -6.84375 Z M 2.09375 -6.84375 "/></g></g></g><g fill="#ffffff" fill-opacity="1"><g transform="translate(236.001193, 443.18894)"><g><path d="M 7.203125 -3.6875 C 7.203125 -3.46875 7.191406 -3.238281 7.171875 -3 L 1.703125 -3 C 1.742188 -2.320312 1.972656 -1.789062 2.390625 -1.40625 C 2.804688 -1.03125 3.316406 -0.84375 3.921875 -0.84375 C 4.410156 -0.84375 4.816406 -0.957031 5.140625 -1.1875 C 5.472656 -1.414062 5.707031 -1.722656 5.84375 -2.109375 L 7.0625 -2.109375 C 6.882812 -1.453125 6.519531 -0.914062 5.96875 -0.5 C 5.414062 -0.09375 4.734375 0.109375 3.921875 0.109375 C 3.273438 0.109375 2.691406 -0.0351562 2.171875 -0.328125 C 1.660156 -0.617188 1.257812 -1.03125 0.96875 -1.5625 C 0.675781 -2.101562 0.53125 -2.726562 0.53125 -3.4375 C 0.53125 -4.144531 0.671875 -4.765625 0.953125 -5.296875 C 1.242188 -5.828125 1.644531 -6.234375 2.15625 -6.515625 C 2.664062 -6.804688 3.253906 -6.953125 3.921875 -6.953125 C 4.566406 -6.953125 5.140625 -6.8125 5.640625 -6.53125 C 6.140625 -6.25 6.523438 -5.859375 6.796875 -5.359375 C 7.066406 -4.867188 7.203125 -4.3125 7.203125 -3.6875 Z M 6.03125 -3.921875 C 6.03125 -4.347656 5.929688 -4.71875 5.734375 -5.03125 C 5.546875 -5.34375 5.285156 -5.582031 4.953125 -5.75 C 4.628906 -5.914062 4.269531 -6 3.875 -6 C 3.300781 -6 2.8125 -5.8125 2.40625 -5.4375 C 2 -5.070312 1.765625 -4.566406 1.703125 -3.921875 Z M 6.03125 -3.921875 "/></g></g></g><g fill="#ffffff" fill-opacity="1"><g transform="translate(243.745976, 443.18894)"><g><path d="M 0.53125 -3.453125 C 0.53125 -4.148438 0.671875 -4.757812 0.953125 -5.28125 C 1.242188 -5.8125 1.632812 -6.222656 2.125 -6.515625 C 2.625 -6.804688 3.179688 -6.953125 3.796875 -6.953125 C 4.328125 -6.953125 4.820312 -6.828125 5.28125 -6.578125 C 5.738281 -6.335938 6.085938 -6.019531 6.328125 -5.625 L 6.328125 -9.234375 L 7.484375 -9.234375 L 7.484375 0 L 6.328125 0 L 6.328125 -1.28125 C 6.109375 -0.875 5.773438 -0.539062 5.328125 -0.28125 C 4.890625 -0.0195312 4.375 0.109375 3.78125 0.109375 C 3.175781 0.109375 2.625 -0.0351562 2.125 -0.328125 C 1.632812 -0.628906 1.242188 -1.050781 0.953125 -1.59375 C 0.671875 -2.132812 0.53125 -2.753906 0.53125 -3.453125 Z M 6.328125 -3.4375 C 6.328125 -3.945312 6.222656 -4.394531 6.015625 -4.78125 C 5.804688 -5.164062 5.523438 -5.457031 5.171875 -5.65625 C 4.816406 -5.863281 4.425781 -5.96875 4 -5.96875 C 3.582031 -5.96875 3.195312 -5.867188 2.84375 -5.671875 C 2.5 -5.472656 2.222656 -5.179688 2.015625 -4.796875 C 1.804688 -4.410156 1.703125 -3.960938 1.703125 -3.453125 C 1.703125 -2.921875 1.804688 -2.460938 2.015625 -2.078125 C 2.222656 -1.691406 2.5 -1.394531 2.84375 -1.1875 C 3.195312 -0.988281 3.582031 -0.890625 4 -0.890625 C 4.425781 -0.890625 4.816406 -0.988281 5.171875 -1.1875 C 5.523438 -1.394531 5.804688 -1.691406 6.015625 -2.078125 C 6.222656 -2.460938 6.328125 -2.914062 6.328125 -3.4375 Z M 6.328125 -3.4375 "/></g></g></g></svg>