<svg xmlns="http://www.w3.org/2000/svg" xmlns:xlink="http://www.w3.org/1999/xlink" width="500" zoomAndPan="magnify" viewBox="0 0 375 374.999991" height="500" preserveAspectRatio="xMidYMid meet" version="1.0"><defs><clipPath id="7f0d0f060c"><path d="M 1 4.6875 L 206 4.6875 L 206 229 L 1 229 Z M 1 4.6875 " clip-rule="nonzero"/></clipPath></defs><path fill="#ffffff" d="M 233.28125 230.3125 C 233.308594 228.234375 231.25 227.179688 229.367188 227.082031 C 227.71875 226.980469 225.007812 227.230469 225.292969 229.496094 C 225.613281 231.988281 226.765625 233.945312 229.367188 233.722656 C 231.078125 233.386719 233.234375 232.347656 233.28125 230.3125 " fill-opacity="1" fill-rule="nonzero"/><path fill="#ffffff" d="M 197.148438 222.066406 L 197.832031 220.789062 L 197.273438 220.390625 C 187.597656 213.691406 178.035156 222.027344 171.71875 227.539062 C 169.191406 229.730469 166.304688 232.320312 164.0625 235.320312 L 165.226562 236.371094 C 177.628906 225.0625 187.871094 220.378906 196.53125 222.078125 L 197.148438 222.066406 " fill-opacity="1" fill-rule="nonzero"/><path fill="#ffffff" d="M 176.5 219.785156 C 184.105469 214.308594 191.105469 212.5625 198.625 217.46875 C 204.136719 207.449219 212.535156 199 221.402344 191.878906 C 217.167969 187.765625 212.832031 183.75 208.472656 179.761719 C 199.824219 188.210938 192.15625 197.75 182.792969 205.402344 C 172.585938 213.691406 161.710938 221.050781 153.136719 231.144531 L 153.113281 231.167969 C 154.960938 233.4375 156.804688 235.703125 158.675781 237.96875 C 162.316406 230.300781 169.761719 224.628906 176.5 219.785156 " fill-opacity="1" fill-rule="nonzero"/><g clip-path="url(#7f0d0f060c)"><path fill="#ffffff" d="M 179.945312 202.554688 C 189.035156 194.640625 196.839844 185.4375 205.460938 177.074219 C 191.996094 164.910156 178.210938 153.042969 165.539062 140.148438 C 148.753906 123.03125 132.726562 105.578125 115.011719 89.351562 C 96.15625 72.109375 77.390625 54.457031 56.582031 39.53125 C 47.316406 32.890625 38.027344 26.152344 28.179688 20.367188 C 19.421875 15.214844 10.726562 8.648438 1.238281 4.785156 C 8.234375 26.683594 15.332031 47.78125 26.59375 68.144531 C 38.597656 89.769531 51.9375 111.300781 67.707031 130.414062 C 83.113281 149.128906 100.109375 166.433594 115.679688 184.992188 C 127.523438 199.148438 138.957031 213.667969 150.5625 228.035156 C 159.183594 218 170.070312 211.175781 179.945312 202.554688 " fill-opacity="1" fill-rule="nonzero"/></g><path fill="#ffffff" d="M 279.96875 277 C 279.980469 274.921875 277.9375 273.867188 276.054688 273.753906 C 274.40625 273.667969 271.695312 273.917969 271.980469 276.183594 C 272.289062 278.671875 273.453125 280.628906 276.054688 280.40625 C 277.765625 280.074219 279.917969 279.03125 279.96875 277 " fill-opacity="1" fill-rule="nonzero"/><path fill="#ffffff" d="M 322 329.535156 C 321.875 325.667969 325.40625 323.5625 328.984375 323.761719 C 332.476562 323.960938 336.726562 325.917969 336.652344 330.03125 C 336.589844 333.757812 333.578125 336.472656 330.023438 337.027344 C 329.9375 337.027344 329.875 337.003906 329.789062 337.003906 C 329.714844 337.027344 329.652344 337.078125 329.589844 337.078125 C 325.15625 337.609375 322.132812 333.757812 322 329.535156 Z M 268.648438 276.183594 C 268.511719 272.320312 272.054688 270.199219 275.632812 270.398438 C 279.125 270.597656 283.363281 272.554688 283.300781 276.667969 C 283.238281 280.40625 280.230469 283.121094 276.675781 283.675781 C 276.585938 283.675781 276.527344 283.652344 276.425781 283.652344 C 276.363281 283.675781 276.300781 283.714844 276.226562 283.714844 C 271.804688 284.246094 268.785156 280.40625 268.648438 276.183594 Z M 221.960938 229.496094 C 221.835938 225.632812 225.367188 223.515625 228.945312 223.722656 C 232.425781 223.921875 236.675781 225.878906 236.613281 229.992188 C 236.550781 233.722656 233.542969 236.433594 229.988281 236.992188 C 229.902344 236.992188 229.839844 236.964844 229.738281 236.964844 C 229.679688 236.992188 229.617188 237.027344 229.542969 237.027344 C 225.121094 237.574219 222.097656 233.722656 221.960938 229.496094 Z M 356.707031 342.960938 C 345.011719 323.6875 325.875 308.019531 309.796875 292.460938 C 293.285156 276.46875 278.347656 258.902344 261.425781 243.394531 C 252.730469 235.417969 244.726562 226.734375 236.03125 218.78125 C 230.234375 213.441406 224.636719 207.980469 220.5625 201.292969 C 213.425781 207.707031 207.046875 215.140625 202.882812 223.785156 C 203.183594 223.960938 203.46875 224.121094 203.75 224.320312 C 217.476562 233.769531 225.429688 249.441406 234.386719 263.039062 C 240.976562 273.074219 249.867188 280.71875 258.875 288.609375 C 269.898438 298.28125 280.75 308.488281 292.703125 317.023438 C 300.792969 322.808594 311.71875 329.300781 316.226562 338.566406 C 319.222656 344.695312 318.46875 350.730469 318.515625 356.886719 C 324.179688 358.792969 329.9375 360.6875 335.859375 361.667969 C 347.453125 363.597656 367.261719 360.378906 356.707031 342.960938 " fill-opacity="1" fill-rule="nonzero"/><path fill="#ffffff" d="M 333.320312 330.363281 C 333.34375 328.269531 331.300781 327.230469 329.40625 327.117188 C 327.757812 327.03125 325.058594 327.269531 325.34375 329.535156 C 325.652344 332.023438 326.804688 333.980469 329.40625 333.757812 C 331.113281 333.425781 333.269531 332.382812 333.320312 330.363281 " fill-opacity="1" fill-rule="nonzero"/><path fill="#ffffff" d="M 345.324219 369.394531 C 355.554688 368.304688 371.25 359.574219 367.421875 346.566406 C 364.597656 336.917969 356.707031 330.625 349.792969 323.875 C 341.410156 315.671875 333.257812 307.226562 325.09375 298.789062 C 292.144531 264.6875 260.050781 229.746094 226.171875 196.546875 C 225.144531 197.378906 224.117188 198.195312 223.113281 199.0625 C 230.148438 211.089844 242.621094 220.515625 252.371094 230.140625 C 262.441406 240.074219 273.03125 249.328125 282.546875 259.84375 C 301.398438 280.65625 322.132812 299.621094 341.992188 319.453125 C 349.832031 327.292969 373.9375 351.519531 357.289062 362.460938 C 346.191406 369.753906 330.433594 364.464844 318.667969 360.441406 C 318.777344 361.976562 319.023438 363.511719 319.421875 365.058594 C 327.621094 367.933594 336.589844 370.335938 345.324219 369.394531 " fill-opacity="1" fill-rule="nonzero"/></svg>