<svg xmlns="http://www.w3.org/2000/svg" xmlns:xlink="http://www.w3.org/1999/xlink" width="500" zoomAndPan="magnify" viewBox="0 0 375 374.999991" height="500" preserveAspectRatio="xMidYMid meet" version="1.0"><defs><clipPath id="d711fcbd61"><path d="M 169 4.6875 L 374 4.6875 L 374 229 L 169 229 Z M 169 4.6875 " clip-rule="nonzero"/></clipPath></defs><path fill="#ffffff" d="M 141.71875 230.3125 C 141.691406 228.234375 143.75 227.179688 145.632812 227.082031 C 147.28125 226.980469 149.992188 227.230469 149.707031 229.496094 C 149.386719 231.988281 148.234375 233.945312 145.632812 233.722656 C 143.921875 233.386719 141.765625 232.347656 141.71875 230.3125 " fill-opacity="1" fill-rule="nonzero"/><path fill="#ffffff" d="M 177.851562 222.066406 L 177.167969 220.789062 L 177.726562 220.390625 C 187.402344 213.691406 196.964844 222.027344 203.28125 227.539062 C 205.808594 229.730469 208.695312 232.320312 210.9375 235.320312 L 209.773438 236.371094 C 197.371094 225.0625 187.128906 220.378906 178.46875 222.078125 L 177.851562 222.066406 " fill-opacity="1" fill-rule="nonzero"/><path fill="#ffffff" d="M 198.5 219.785156 C 190.894531 214.308594 183.894531 212.5625 176.375 217.46875 C 170.863281 207.449219 162.464844 199 153.597656 191.878906 C 157.832031 187.765625 162.167969 183.75 166.527344 179.761719 C 175.175781 188.210938 182.84375 197.75 192.207031 205.402344 C 202.414062 213.691406 213.289062 221.050781 221.863281 231.144531 L 221.886719 231.167969 C 220.039062 233.4375 218.195312 235.703125 216.324219 237.96875 C 212.683594 230.300781 205.238281 224.628906 198.5 219.785156 " fill-opacity="1" fill-rule="nonzero"/><g clip-path="url(#d711fcbd61)"><path fill="#ffffff" d="M 195.054688 202.554688 C 185.964844 194.640625 178.160156 185.4375 169.539062 177.074219 C 183.003906 164.910156 196.789062 153.042969 209.460938 140.148438 C 226.246094 123.03125 242.273438 105.578125 259.988281 89.351562 C 278.84375 72.109375 297.609375 54.457031 318.417969 39.53125 C 327.683594 32.890625 336.972656 26.152344 346.820312 20.367188 C 355.578125 15.214844 364.273438 8.648438 373.761719 4.785156 C 366.765625 26.683594 359.667969 47.78125 348.40625 68.144531 C 336.402344 89.769531 323.0625 111.300781 307.292969 130.414062 C 291.886719 149.128906 274.890625 166.433594 259.320312 184.992188 C 247.476562 199.148438 236.042969 213.667969 224.4375 228.035156 C 215.816406 218 204.929688 211.175781 195.054688 202.554688 " fill-opacity="1" fill-rule="nonzero"/></g><path fill="#ffffff" d="M 95.03125 277 C 95.019531 274.921875 97.0625 273.867188 98.945312 273.753906 C 100.59375 273.667969 103.304688 273.917969 103.019531 276.183594 C 102.710938 278.671875 101.546875 280.628906 98.945312 280.40625 C 97.234375 280.074219 95.082031 279.03125 95.03125 277 " fill-opacity="1" fill-rule="nonzero"/><path fill="#ffffff" d="M 53 329.535156 C 53.125 325.667969 49.59375 323.5625 46.015625 323.761719 C 42.523438 323.960938 38.273438 325.917969 38.347656 330.03125 C 38.410156 333.757812 41.421875 336.472656 44.976562 337.027344 C 45.0625 337.027344 45.125 337.003906 45.210938 337.003906 C 45.285156 337.027344 45.347656 337.078125 45.410156 337.078125 C 49.84375 337.609375 52.867188 333.757812 53 329.535156 Z M 106.351562 276.183594 C 106.488281 272.320312 102.945312 270.199219 99.367188 270.398438 C 95.875 270.597656 91.636719 272.554688 91.699219 276.667969 C 91.761719 280.40625 94.769531 283.121094 98.324219 283.675781 C 98.414062 283.675781 98.472656 283.652344 98.574219 283.652344 C 98.636719 283.675781 98.699219 283.714844 98.773438 283.714844 C 103.195312 284.246094 106.214844 280.40625 106.351562 276.183594 Z M 153.039062 229.496094 C 153.164062 225.632812 149.632812 223.515625 146.054688 223.722656 C 142.574219 223.921875 138.324219 225.878906 138.386719 229.992188 C 138.449219 233.722656 141.457031 236.433594 145.011719 236.992188 C 145.097656 236.992188 145.160156 236.964844 145.261719 236.964844 C 145.320312 236.992188 145.382812 237.027344 145.457031 237.027344 C 149.878906 237.574219 152.902344 233.722656 153.039062 229.496094 Z M 18.292969 342.960938 C 29.988281 323.6875 49.125 308.019531 65.203125 292.460938 C 81.714844 276.46875 96.652344 258.902344 113.574219 243.394531 C 122.269531 235.417969 130.273438 226.734375 138.96875 218.78125 C 144.765625 213.441406 150.363281 207.980469 154.4375 201.292969 C 161.574219 207.707031 167.953125 215.140625 172.117188 223.785156 C 171.816406 223.960938 171.53125 224.121094 171.25 224.320312 C 157.523438 233.769531 149.570312 249.441406 140.613281 263.039062 C 134.023438 273.074219 125.132812 280.71875 116.125 288.609375 C 105.101562 298.28125 94.25 308.488281 82.296875 317.023438 C 74.207031 322.808594 63.28125 329.300781 58.773438 338.566406 C 55.777344 344.695312 56.53125 350.730469 56.484375 356.886719 C 50.820312 358.792969 45.0625 360.6875 39.140625 361.667969 C 27.546875 363.597656 7.738281 360.378906 18.292969 342.960938 " fill-opacity="1" fill-rule="nonzero"/><path fill="#ffffff" d="M 41.679688 330.363281 C 41.65625 328.269531 43.699219 327.230469 45.59375 327.117188 C 47.242188 327.03125 49.941406 327.269531 49.65625 329.535156 C 49.347656 332.023438 48.195312 333.980469 45.59375 333.757812 C 43.886719 333.425781 41.730469 332.382812 41.679688 330.363281 " fill-opacity="1" fill-rule="nonzero"/><path fill="#ffffff" d="M 29.675781 369.394531 C 19.445312 368.304688 3.75 359.574219 7.578125 346.566406 C 10.402344 336.917969 18.292969 330.625 25.207031 323.875 C 33.589844 315.671875 41.742188 307.226562 49.90625 298.789062 C 82.855469 264.6875 114.949219 229.746094 148.828125 196.546875 C 149.855469 197.378906 150.882812 198.195312 151.886719 199.0625 C 144.851562 211.089844 132.378906 220.515625 122.628906 230.140625 C 112.558594 240.074219 101.96875 249.328125 92.453125 259.84375 C 73.601562 280.65625 52.867188 299.621094 33.007812 319.453125 C 25.167969 327.292969 1.0625 351.519531 17.710938 362.460938 C 28.808594 369.753906 44.566406 364.464844 56.332031 360.441406 C 56.222656 361.976562 55.976562 363.511719 55.578125 365.058594 C 47.378906 367.933594 38.410156 370.335938 29.675781 369.394531 " fill-opacity="1" fill-rule="nonzero"/></svg>